<?xml version="1.0" encoding="UTF-8"?>
<svg width="44px" height="51px" viewBox="0 0 44 51" version="1.1" xmlns="http://www.w3.org/2000/svg" xmlns:xlink="http://www.w3.org/1999/xlink">
    <!-- Generator: Sketch 52.6 (67491) - http://www.bohemiancoding.com/sketch -->
    <title>riot_hex</title>
    <desc>Created with Sketch.</desc>
    <g id="Page-1" stroke="none" stroke-width="1" fill="none" fill-rule="evenodd">
        <g id="riot_hex" transform="translate(-2.000000, -2.000000)">
            <g id="layer1" transform="translate(0.000000, 0.800000)" fill="#FFFFFF">
                <polygon id="path4596" transform="translate(23.949994, 26.600002) rotate(-2.663394) translate(-23.949994, -26.600002) " points="45.2861436 40.3105047 22.7697063 51.9723272 1.43355645 38.2618253 2.61384403 12.8894966 25.1302814 1.22767635 46.4664312 14.9381804"></polygon>
            </g>
            <g id="Group-17" transform="translate(9.000000, 14.000000)">
                <path d="M7.83834183,7.64055964 L7.83834183,11.5143846 L11.7718953,11.5103346 C11.8218474,11.5103346 11.8674258,11.5089846 11.912774,11.5060596 C12.9470352,11.4378846 13.7554762,10.5898596 13.7554762,9.57555964 C13.7554762,8.50838464 12.8676183,7.64055964 11.7758086,7.64055964 L7.83834183,7.64055964 Z M3.94806482,26.7741096 C1.7996651,26.7741096 0.0577878116,25.0717596 0.0577878116,22.9716096 L0.0577878116,15.7245846 C0.0437459834,15.5931846 0.0361495845,15.4595346 0.0361495845,15.3243096 C0.0359193906,15.1866096 0.0432855956,15.0507096 0.0577878116,14.9166096 L0.0577878116,3.83805964 C0.0577878116,1.73790964 1.7996651,0.0353346429 3.94806482,0.0353346429 L11.7758086,0.0353346429 C17.1577421,0.0353346429 21.5362604,4.31505964 21.5362604,9.57555964 C21.5362604,14.5770846 17.5396338,18.7578096 12.4376161,19.0935096 C12.2207734,19.1081346 11.9972551,19.1155596 11.7758086,19.1155596 L7.83834183,19.1193846 L7.83834183,22.9716096 C7.83834183,25.0717596 6.09669474,26.7741096 3.94806482,26.7741096 Z" id="Fill-1" fill="#A2DDEF"></path>
                <path d="M7.83834183,7.64055964 L7.83834183,11.5143846 L11.7718953,11.5103346 C11.8218474,11.5103346 11.8674258,11.5089846 11.912774,11.5060596 C12.9470352,11.4378846 13.7554762,10.5898596 13.7554762,9.57555964 C13.7554762,8.50838464 12.8676183,7.64055964 11.7758086,7.64055964 L7.83834183,7.64055964 Z M3.94806482,26.7741096 C1.7996651,26.7741096 0.0577878116,25.0717596 0.0577878116,22.9716096 L0.0577878116,15.7245846 C0.0437459834,15.5931846 0.0361495845,15.4595346 0.0361495845,15.3243096 C0.0359193906,15.1866096 0.0432855956,15.0507096 0.0577878116,14.9166096 L0.0577878116,3.83805964 C0.0577878116,1.73790964 1.7996651,0.0353346429 3.94806482,0.0353346429 L11.7758086,0.0353346429 C17.1577421,0.0353346429 21.5362604,4.31505964 21.5362604,9.57555964 C21.5362604,14.5770846 17.5396338,18.7578096 12.4376161,19.0935096 C12.2207734,19.1081346 11.9972551,19.1155596 11.7758086,19.1155596 L7.83834183,19.1193846 L7.83834183,22.9716096 C7.83834183,25.0717596 6.09669474,26.7741096 3.94806482,26.7741096 Z" id="Stroke-3" stroke="#368BD6" stroke-width="0.686025408"></path>
                <path d="M3.94808784,22.9715421 L3.94808784,3.83799214 L11.7758316,3.83799214 C15.0176524,3.83799214 17.6457762,6.40681714 17.6457762,9.57549214 C17.6457762,12.6127671 15.2312723,15.0987921 12.176369,15.2997171 C12.0437773,15.3084921 11.910495,15.3129921 11.7758316,15.3129921 L3.92644961,15.3206421" id="Stroke-5" stroke="#368BD6" stroke-width="0.686025408" stroke-linecap="round"></path>
                <path d="M7.15372213,1.65717964 C7.75015454,2.48900464 7.97919748,3.49835464 7.79872546,4.49802964 C7.61802324,5.49837964 7.04944429,6.36980464 6.19772684,6.95232964 C4.4392756,8.15495464 2.00681659,7.73622964 0.775509391,6.01880464 C0.179076981,5.18697964 -0.0499659557,4.17785464 0.13073626,3.17772964 C0.311208283,2.17760464 0.87978723,1.30595464 1.73173488,0.723654643 C3.49018612,-0.478970357 5.92241493,-0.0602453571 7.15372213,1.65717964 Z M17.6777962,26.7719271 C16.4517834,26.7719271 15.2455674,26.2071771 14.4884596,25.1512521 L8.99027817,17.4819021 C7.75735961,15.7620021 8.18436931,13.3907271 9.94374133,12.1858521 C11.7031134,10.9800771 14.1291269,11.3976771 15.3620455,13.1175771 L20.8602269,20.7869271 C22.0933757,22.5068271 21.666366,24.8781021 19.906994,26.0829771 C19.2274616,26.5485021 18.4487156,26.7719271 17.6777962,26.7719271 Z" id="Combined-Shape" fill="#368BD6"></path>
                <path d="M26.4721805,6.19802956 C26.2996241,6.19802956 26.1654135,6.06768473 26.1654135,5.90009852 C26.1654135,5.73251232 26.2996241,5.60216749 26.4721805,5.60216749 L29.6165414,5.60216749 C29.7890977,5.60216749 29.9233083,5.73251232 29.9233083,5.90009852 C29.9233083,6.06768473 29.7890977,6.19802956 29.6165414,6.19802956 L26.4721805,6.19802956 Z M26.4721805,0.723546798 C26.2996241,0.723546798 26.1654135,0.59320197 26.2037594,0.388374384 C26.2037594,0.220788177 26.3379699,0.0904433498 26.5105263,0.0904433498 L27.7567669,0.0904433498 L29.6357143,0.0904433498 C29.6932331,0.0904433498 29.7507519,0.109064039 29.8082707,0.146305419 C29.8849624,0.202167488 29.9424812,0.295270936 29.9424812,0.406995074 L29.9424812,1.74768473 C29.9424812,2.41802956 29.3672932,2.97665025 28.6770677,2.97665025 C28.1785714,2.97665025 27.7567669,2.71596059 27.5458647,2.30630542 L26.6639098,2.90216749 C26.5105263,2.99527094 26.318797,2.95802956 26.2229323,2.82768473 C26.1270677,2.67871921 26.1654135,2.49251232 26.2996241,2.39940887 L27.4116541,1.65458128 L27.4116541,0.723546798 L26.4721805,0.723546798 Z M29.2906015,1.76630542 L29.2714286,0.723546798 L28.025188,0.723546798 L28.025188,1.76630542 C28.025188,2.10147783 28.312782,2.38078818 28.6578947,2.38078818 C29.0030075,2.38078818 29.2906015,2.10147783 29.2906015,1.76630542 Z M29.6165414,14.2049261 C29.7890977,14.2049261 29.9233083,14.3352709 29.9233083,14.5028571 L29.9233083,15.713202 L29.9233083,16.9421675 C29.9233083,17.1097537 29.7890977,17.2400985 29.6165414,17.2400985 C29.443985,17.2400985 29.3097744,17.1097537 29.3097744,16.9421675 L29.3097744,16.011133 L26.4913534,16.011133 C26.318797,16.011133 26.1845865,15.8807882 26.1845865,15.713202 C26.1845865,15.5456158 26.318797,15.4152709 26.4913534,15.4152709 L29.3097744,15.4152709 L29.3097744,14.5028571 C29.3097744,14.3352709 29.443985,14.2049261 29.6165414,14.2049261 Z M28.0443609,8.76768473 C29.0988722,8.76768473 29.9616541,9.60561576 29.9616541,10.6297537 C29.9616541,11.6538916 29.0988722,12.4918227 28.0443609,12.4918227 C26.9898496,12.4918227 26.1270677,11.6538916 26.1270677,10.6297537 C26.1270677,9.60561576 26.9898496,8.76768473 28.0443609,8.76768473 Z M28.0443609,11.8773399 C28.7537594,11.8773399 29.3289474,11.3187192 29.3289474,10.6297537 C29.3289474,9.94078818 28.7537594,9.38216749 28.0443609,9.38216749 C27.3349624,9.38216749 26.7597744,9.94078818 26.7597744,10.6297537 C26.7597744,11.3187192 27.3349624,11.8773399 28.0443609,11.8773399 Z M29.8274436,20.4056158 C29.8849624,20.4614778 29.9041353,20.5359606 29.9041353,20.6104433 C29.9041353,20.7035468 29.8849624,20.7594089 29.8274436,20.8152709 C29.7507519,20.871133 29.6740602,20.8897537 29.6165414,20.8897537 L26.4530075,20.8897537 C26.3571429,20.8897537 26.2996241,20.8897537 26.2421053,20.8152709 C26.1845865,20.7407882 26.1654135,20.6849261 26.1654135,20.6104433 C26.1654135,20.5173399 26.1845865,20.4614778 26.2421053,20.4056158 C26.318797,20.3497537 26.3763158,20.331133 26.4530075,20.331133 L29.6165414,20.331133 C29.712406,20.331133 29.7699248,20.3497537 29.8274436,20.4056158 Z M29.9041353,23.813202 C29.9041353,23.9249261 29.8466165,24.0180296 29.7699248,24.0738916 L28.006015,25.2097537 L29.7699248,26.3456158 C29.8849624,26.4014778 29.9041353,26.513202 29.9041353,26.6063054 L29.9041353,26.6435468 C29.9041353,26.7366502 29.9041353,26.7925123 29.8274436,26.8483744 C29.7507519,26.9042365 29.6932331,26.9228571 29.6165414,26.9228571 L26.4721805,26.9228571 C26.3763158,26.9228571 26.318797,26.9228571 26.2612782,26.8483744 C26.2037594,26.7738916 26.1845865,26.7366502 26.1845865,26.6435468 C26.1845865,26.5504433 26.2037594,26.4945813 26.2612782,26.4387192 C26.3379699,26.3828571 26.4146617,26.3642365 26.4721805,26.3642365 L28.7921053,26.3642365 L27.3924812,25.433202 C27.3157895,25.3773399 27.2582707,25.2842365 27.2582707,25.191133 C27.2582707,25.0980296 27.2966165,25.0235468 27.3733083,24.949064 L28.7729323,24.0366502 L26.4530075,24.0366502 C26.3571429,24.0366502 26.2996241,24.0366502 26.2421053,23.9621675 C26.1845865,23.8876847 26.1654135,23.8504433 26.1654135,23.7573399 C26.1654135,23.6642365 26.1845865,23.6083744 26.2421053,23.5525123 C26.318797,23.4966502 26.3954887,23.4966502 26.4530075,23.4966502 L29.6165414,23.4966502 C29.712406,23.4966502 29.7699248,23.5152709 29.8274436,23.571133 C29.8849624,23.6269951 29.9041353,23.7014778 29.9041353,23.7759606 L29.9041353,23.813202 Z M27.8334586,18.3759606 C27.8909774,18.3759606 27.9484962,18.3945813 28.006015,18.4504433 C28.0443609,18.4876847 28.0827068,18.5435468 28.0827068,18.6180296 C28.0827068,18.6738916 28.0635338,18.7297537 28.006015,18.7856158 C27.9676692,18.8228571 27.9101504,18.8600985 27.8334586,18.8600985 L27.737594,18.8600985 C27.6800752,18.8600985 27.6225564,18.8414778 27.5650376,18.7856158 C27.5266917,18.7483744 27.4883459,18.6925123 27.4883459,18.6180296 C27.4883459,18.5435468 27.5075188,18.4876847 27.5650376,18.4504433 C27.6033835,18.413202 27.6609023,18.3759606 27.737594,18.3759606 L27.8334586,18.3759606 Z" id="Combined-Shape" fill="#368BD6"></path>
            </g>
        </g>
    </g>
</svg>